<svg id="Livello_1" data-name="Livello 1" xmlns="http://www.w3.org/2000/svg" viewBox="0 0 721.46 142.31"><defs><style>.cls-1{fill:#e85718;}.cls-2{fill:#232323;}</style></defs><path d="M232.84,292.38V336h49.51V346.6H232.84v41.46H222.21V281.75H293v10.63Z" transform="translate(-222.21 -278.26)"/><path d="M334.51,323.36a26.79,26.79,0,0,0-7.9-1.21A22.94,22.94,0,0,0,317.5,324,23.36,23.36,0,0,0,305,336.43a22.94,22.94,0,0,0-1.82,9.11v42.52H292.59V312.13h8.81L304,320a34.75,34.75,0,0,1,10.48-6.3,33.73,33.73,0,0,1,12.15-2.2,32.12,32.12,0,0,1,4,.23c1.27.15,2.56.33,3.88.53Z" transform="translate(-222.21 -278.26)"/><path d="M345,350.4a28.59,28.59,0,0,0,2.5,11.92,31.65,31.65,0,0,0,16.41,16.17,29.18,29.18,0,0,0,11.92,2.43,29.91,29.91,0,0,0,15.79-4.32,30.5,30.5,0,0,0,11.09-11.47h11.85a41.81,41.81,0,0,1-9.42,14.28,43.63,43.63,0,0,1-13.44,9,40.31,40.31,0,0,1-15.87,3.19,40.88,40.88,0,0,1-16-3.19A41.85,41.85,0,0,1,337.44,366a41,41,0,0,1-3.11-15.87,41.54,41.54,0,0,1,3.11-15.94,39.41,39.41,0,0,1,9-13.37,40.19,40.19,0,0,1,13.36-9.11,40.71,40.71,0,0,1,16-3.19,40.14,40.14,0,0,1,15.87,3.19,42.21,42.21,0,0,1,13.44,9.11,39.05,39.05,0,0,1,9,13.52,42.87,42.87,0,0,1,3.11,16.1Zm30.83-31.29a30.16,30.16,0,0,0-9.57,1.52,30.88,30.88,0,0,0-8.35,4.25,31.83,31.83,0,0,0-11.24,14.89H404.8a31.66,31.66,0,0,0-11.17-14.89A29.31,29.31,0,0,0,375.79,319.11Z" transform="translate(-222.21 -278.26)"/><path d="M435.51,350.4A28.6,28.6,0,0,0,438,362.32,31.4,31.4,0,0,0,444.7,372a31.77,31.77,0,0,0,9.72,6.53,29.18,29.18,0,0,0,11.92,2.43,29.94,29.94,0,0,0,15.8-4.32,30.47,30.47,0,0,0,11.08-11.47h11.85a41.81,41.81,0,0,1-9.42,14.28,43.51,43.51,0,0,1-13.44,9,40.31,40.31,0,0,1-15.87,3.19,40.84,40.84,0,0,1-15.94-3.19A41.68,41.68,0,0,1,428,334.15a39.41,39.41,0,0,1,9-13.37,40.23,40.23,0,0,1,13.37-9.11,40.66,40.66,0,0,1,15.94-3.19,40.14,40.14,0,0,1,15.87,3.19,42.1,42.1,0,0,1,13.44,9.11,39.05,39.05,0,0,1,9,13.52,42.87,42.87,0,0,1,3.11,16.1Zm30.83-31.29a30.16,30.16,0,0,0-9.57,1.52,31,31,0,0,0-8.35,4.25,31.83,31.83,0,0,0-11.24,14.89h58.17a31.71,31.71,0,0,0-11.16-14.89A29.36,29.36,0,0,0,466.34,319.11Z" transform="translate(-222.21 -278.26)"/><path class="cls-1" d="M606.65,320.63a41.31,41.31,0,0,1,13.36-9,41.47,41.47,0,0,1,31.9,0,41.57,41.57,0,0,1,0,76.7,41.47,41.47,0,0,1-31.9,0,41.47,41.47,0,0,1-13.36-9,16.22,16.22,0,0,1-1.52-1.68v42.83H594.5V350.09a41.54,41.54,0,0,1,3.11-15.94A40.86,40.86,0,0,1,606.65,320.63ZM636,380.92a29.76,29.76,0,0,0,12-2.43,30.94,30.94,0,0,0,16.4-16.4,29.86,29.86,0,0,0,2.43-12A30.44,30.44,0,0,0,664.36,338a30.83,30.83,0,0,0-6.61-9.87,31.15,31.15,0,0,0-9.79-6.61,30.84,30.84,0,0,0-24,0A30.73,30.73,0,0,0,607.56,338a30.44,30.44,0,0,0-2.43,12.07,29.86,29.86,0,0,0,2.43,12,30.85,30.85,0,0,0,16.4,16.4A29.76,29.76,0,0,0,636,380.92Z" transform="translate(-222.21 -278.26)"/><path class="cls-1" d="M754.82,320.63a41,41,0,0,1,9,13.52A41.72,41.72,0,0,1,767,350.09v38H756.34V376.67a33,33,0,0,1-6.68,7.06,35.68,35.68,0,0,1-7.67,4.56,37.78,37.78,0,0,1-8.28,2.51,47.22,47.22,0,0,1-8.2.76,40.92,40.92,0,0,1-16-3.19,41.47,41.47,0,0,1-13.36-9,41.24,41.24,0,0,1-12.15-29.32,41.54,41.54,0,0,1,3.11-15.94,41.45,41.45,0,0,1,67.66-13.52Zm-29.31,60.29a29.76,29.76,0,0,0,12-2.43,30.94,30.94,0,0,0,16.4-16.4,29.86,29.86,0,0,0,2.43-12A30.44,30.44,0,0,0,753.91,338a30.83,30.83,0,0,0-6.61-9.87,31.15,31.15,0,0,0-9.79-6.61,30.84,30.84,0,0,0-24,0A30.82,30.82,0,0,0,697.11,338a30.44,30.44,0,0,0-2.43,12.07,29.86,29.86,0,0,0,2.43,12,30.94,30.94,0,0,0,16.4,16.4A29.76,29.76,0,0,0,725.51,380.92Z" transform="translate(-222.21 -278.26)"/><path class="cls-1" d="M871.37,350.4a28.6,28.6,0,0,0,2.51,11.92,31.4,31.4,0,0,0,6.68,9.64,31.77,31.77,0,0,0,9.72,6.53,29.18,29.18,0,0,0,11.92,2.43A29.94,29.94,0,0,0,918,376.6a30.55,30.55,0,0,0,11.08-11.47h11.85a41.81,41.81,0,0,1-9.42,14.28,43.51,43.51,0,0,1-13.44,9,40.31,40.31,0,0,1-15.87,3.19,40.84,40.84,0,0,1-15.94-3.19,41.68,41.68,0,0,1-22.41-54.22,39.41,39.41,0,0,1,9-13.37,40.23,40.23,0,0,1,13.37-9.11,40.66,40.66,0,0,1,15.94-3.19,40.14,40.14,0,0,1,15.87,3.19,42.1,42.1,0,0,1,13.44,9.11,39.05,39.05,0,0,1,9,13.52,42.67,42.67,0,0,1,3.11,16.1Zm30.83-31.29a30.16,30.16,0,0,0-9.57,1.52,31,31,0,0,0-8.35,4.25,31.55,31.55,0,0,0-6.68,6.53,32,32,0,0,0-4.56,8.36h58.17a31.71,31.71,0,0,0-11.16-14.89A29.36,29.36,0,0,0,902.2,319.11Z" transform="translate(-222.21 -278.26)"/><path class="cls-1" d="M856,362.21c-5,16.33-22.84,29.54-43,28.2-23.59-1.56-40.8-21.1-39.91-43.26.81-20.31,17.42-37.83,39.16-39.57,23.43-1.87,39.91,14.37,43.7,28.16-4.55,0-9,.12-13.47-.11-.85,0-1.78-1.33-2.42-2.21-6.81-9.39-16.14-14.06-27.86-12.56-12.28,1.57-20.63,8.52-24.35,20.1-4.33,13.43,2.46,27.72,15.76,33.77a29.27,29.27,0,0,0,36.24-10c1.25-1.87,2.48-2.68,4.77-2.56C848.36,362.35,852.06,362.21,856,362.21Z" transform="translate(-222.21 -278.26)"/><path class="cls-1" d="M571.94,334.86a83.36,83.36,0,0,0-13-5.18c-1.6-.53-1.64-.65-.43-1.77,2.94-2.76,5.91-5.49,8.86-8.24,2-1.9,8.95-7.59,11.22-9.72a3.77,3.77,0,0,0-1.8,1c-7.45,5.76-19.72,15.34-27.18,21.08q-15.63,12-31.32,24c-.67.52-1.43.94-1.56,1.94a17.24,17.24,0,0,0-.23,4.24,29.8,29.8,0,0,0,10.61,20.31c11.77,9.9,31.14,11.89,45.22,4.81,12.37-6.23,18.21-17.58,15.92-31.34C586.58,346.05,580.45,339.46,571.94,334.86Zm-4,39.85c-4.37,2.58-9.17,3.39-13.93,3.55-5.23-.16-10.07-1-14.55-3.45a17.86,17.86,0,0,1-8.41-9.92,37,37,0,0,1-1.74-8,2.87,2.87,0,0,1,1-2.69q7.5-6.91,14.94-13.88c.5-.47,1-.85,1.73-.57,6.5,2.36,13.29,3.95,19.4,7.36A20.26,20.26,0,0,1,572,351.6,15.46,15.46,0,0,1,567.9,374.71Z" transform="translate(-222.21 -278.26)"/><path class="cls-2" d="M520.26,318c2.09,8,7.42,13.11,14.4,16.85a2.12,2.12,0,0,0,2.7-.28c3.06-2.47,6.18-4.86,9.27-7.28,1.33-1.05,1.32-1.13-.24-1.76a30.42,30.42,0,0,1-9.35-5.42,12.24,12.24,0,0,1-4.12-6.9,17.27,17.27,0,0,1,7.21-17.63c6.07-4.06,12.74-4.81,19.63-2.92s11.34,5.94,12.09,13.41c.13,1.35.71.91,1.35.42,3.13-2.44,6.24-4.93,9.41-7.33a1.93,1.93,0,0,0,.69-2.72,26.48,26.48,0,0,0-7.39-10c-8.69-7.07-18.63-9.38-29.54-7.49-16.56,2.86-27.4,16.21-27,31.47A25.79,25.79,0,0,0,520.26,318Z" transform="translate(-222.21 -278.26)"/></svg>