<svg id="Layer_1" data-name="Layer 1" xmlns="http://www.w3.org/2000/svg" viewBox="0 0 1198 1195.46"><defs><style>.cls-1{fill:#e85718;}.cls-2{fill:#fff;}</style></defs><path class="cls-1" d="M1559.52,472.62c-26.7-33.49-60.58-55.67-102.1-66.24-4.47-1.14-8.83-2.73-13.25-4.11H555.83c-24.74,7.12-49.28,14.56-71,29.3Q423,473.71,405.41,546.29c-1.49,6.13-2.94,12.28-4.41,18.42v870.58c6.78,33,17.54,64.17,38.7,91.09,26.76,34,60.91,56.54,102.88,67.24,4.47,1.14,8.83,2.73,13.25,4.11h888.34c24.73-7.15,49.28-14.55,70.95-29.3q61.89-42.14,79.47-114.72c1.49-6.14,2.94-12.28,4.41-18.42V564.71C1592.14,531.32,1581.15,499.76,1559.52,472.62ZM945.83,532.69c91.9-15.73,175.72,3.5,249,62.55,27.81,22.42,47.71,51.14,62.27,83.74,4.35,9.72,3,16.15-5.78,22.71-26.75,20-53,40.76-79.39,61.18-5.31,4.11-10.2,7.72-11.34-3.49-6.3-62.41-45-96.54-101.91-112-58.08-15.79-114.28-9.48-165.39,24.41-48.22,32-71.89,90.44-60.79,147.14,4.58,23.42,17.19,42,34.71,57.61,23.11,20.54,50.3,34,78.79,45.24,13.2,5.21,13.28,5.92,2,14.66-26,20.25-52.36,40.16-78.1,60.77-7.68,6.15-13.92,7-22.78,2.32C788.34,968.37,743.37,925.46,725.73,859a215.75,215.75,0,0,1-7.12-63.6C714.87,668,806.22,556.59,945.83,532.69Zm218.69,905.22c-118.71,59.13-281.91,42.51-381.13-40.07-52.79-43.93-81.8-101.39-89.41-169.59-1.32-11.85.38-23.61,2-35.38,1.11-8.33,7.51-11.87,13.14-16.15q132-100,263.92-200.08c62.92-47.93,125.43-96.4,188.18-144.55,3.85-3,7.16-7,15.21-8.68-19.18,17.79-36.37,33.81-53.65,49.74-24.89,22.93-49.9,45.71-74.72,68.71-10.14,9.4-9.81,10.34,3.61,14.84,37.3,12.51,74.86,24.55,109.66,43.19,71.75,38.45,123.38,93.38,137.36,176.46C1318,1291.19,1268.81,1386,1164.52,1437.91Z" transform="translate(-401 -402.27)"/><path class="cls-2" d="M725.73,859c17.64,66.5,62.61,109.41,121.39,140.58,8.86,4.7,15.1,3.83,22.78-2.32C895.64,976.61,922,956.7,948,936.45c11.24-8.74,11.16-9.45-2-14.66-28.49-11.22-55.68-24.7-78.79-45.24C849.65,861,837,842.36,832.46,818.94c-11.1-56.7,12.57-115.17,60.79-147.14,51.11-33.89,107.31-40.2,165.39-24.41,56.86,15.45,95.61,49.58,101.91,112,1.14,11.21,6,7.6,11.34,3.49,26.44-20.42,52.64-41.17,79.39-61.18,8.75-6.56,10.13-13,5.78-22.71-14.56-32.6-34.46-61.32-62.27-83.74-73.24-59-157.06-78.28-249-62.55-139.61,23.9-231,135.35-227.22,262.67A215.75,215.75,0,0,0,725.73,859Z" transform="translate(-401 -402.27)"/><path class="cls-2" d="M1161.29,999.89c-34.8-18.64-72.36-30.68-109.66-43.19-13.42-4.5-13.75-5.44-3.61-14.84,24.82-23,49.83-45.78,74.72-68.71,17.28-15.93,34.47-31.95,53.65-49.74-8.05,1.72-11.36,5.73-15.21,8.68-62.75,48.15-125.26,96.62-188.18,144.55Q841.27,1077,709.08,1176.72c-5.63,4.28-12,7.82-13.14,16.15-1.58,11.77-3.28,23.53-2,35.38,7.61,68.2,36.62,125.66,89.41,169.59,99.22,82.58,262.42,99.2,381.13,40.07,104.29-51.94,153.46-146.72,134.13-261.56C1284.67,1093.27,1233,1038.34,1161.29,999.89Zm-34,332.62c-36.84,21.59-77.35,28.27-117.43,29.66-44.08-1.32-84.92-8.27-122.66-28.84-34.21-18.65-57.52-46.3-70.85-82.79-7.89-21.61-11.78-44-14.66-66.67-1.15-9.09,1.3-16.11,8.29-22.5q63.22-57.64,126-115.85c4.21-3.88,8.3-7,14.6-4.75,54.76,19.76,112,33,163.45,61.48,17.89,9.89,34.28,21.79,47.63,37.38C1212.61,1199.12,1196,1292.26,1127.31,1332.51Z" transform="translate(-401 -402.27)"/><path class="cls-1" d="M1114,1102.25c-51.48-28.47-108.69-41.72-163.45-61.48-6.3-2.27-10.39.87-14.6,4.75q-62.88,58-126,115.85c-7,6.39-9.44,13.41-8.29,22.5,2.88,22.67,6.77,45.06,14.66,66.67,13.33,36.49,36.64,64.14,70.85,82.79,37.74,20.57,78.58,27.52,122.66,28.84,40.08-1.39,80.59-8.07,117.43-29.66,68.66-40.25,85.3-133.39,34.32-192.88C1148.28,1124,1131.89,1112.14,1114,1102.25Z" transform="translate(-401 -402.27)"/></svg>