<?xml version="1.0" encoding="utf-8"?>
<!-- Generator: Adobe Illustrator 24.1.1, SVG Export Plug-In . SVG Version: 6.00 Build 0)  -->
<svg version="1.1" id="Livello_1" xmlns="http://www.w3.org/2000/svg" xmlns:xlink="http://www.w3.org/1999/xlink" x="0px" y="0px"
	 viewBox="0 0 721.5 142.3" style="enable-background:new 0 0 721.5 142.3;" xml:space="preserve">
<style type="text/css">
	.st0{fill:#E85718;}
	.st1{fill:#232323;}
</style>
<path d="M10.6,14.1v43.6h49.5v10.6H10.6v41.5H0V3.5h70.8v10.6H10.6z"/>
<path d="M112.3,45.1c-2.6-0.8-5.2-1.2-7.9-1.2c-3.1,0-6.2,0.6-9.1,1.9c-5.6,2.4-10.1,6.8-12.5,12.4c-1.2,2.9-1.8,6-1.8,9.1v42.5
	H70.4V33.9h8.8l2.6,7.9c3.1-2.7,6.6-4.8,10.5-6.3c3.9-1.5,8-2.2,12.1-2.2c1.3,0,2.7,0.1,4,0.2c1.3,0.1,2.6,0.3,3.9,0.5V45.1z"/>
<path d="M122.8,72.1c0,4.1,0.8,8.2,2.5,11.9c3.2,7.3,9.1,13,16.4,16.2c3.8,1.6,7.8,2.5,11.9,2.4c5.6,0.1,11-1.4,15.8-4.3
	c4.6-2.8,8.5-6.7,11.1-11.5h11.9c-2.1,5.4-5.3,10.2-9.4,14.3c-3.9,3.8-8.4,6.9-13.4,9c-5,2.1-10.4,3.2-15.9,3.2
	c-5.5,0-10.9-1.1-16-3.2c-10.1-4.2-18.2-12.3-22.4-22.4c-2.1-5-3.1-10.4-3.1-15.9c0-5.5,1-10.9,3.1-15.9c2-5,5.1-9.6,9-13.4
	c3.8-3.9,8.3-7,13.4-9.1c5.1-2.1,10.5-3.2,16-3.2c5.5,0,10.9,1.1,15.9,3.2c5,2.1,9.6,5.2,13.4,9.1c3.9,3.8,7,8.4,9,13.5
	c2.1,5.1,3.1,10.6,3.1,16.1L122.8,72.1z M153.6,40.8c-3.3,0-6.5,0.5-9.6,1.5c-3,1-5.8,2.4-8.4,4.3c-5.1,3.7-9.1,8.9-11.2,14.9h58.1
	c-2.1-6-6-11.2-11.2-14.9C166.3,42.8,160,40.8,153.6,40.8L153.6,40.8z"/>
<path d="M213.3,72.1c0,4.1,0.8,8.2,2.5,11.9c1.6,3.6,3.9,6.9,6.7,9.7c2.8,2.8,6.1,5,9.7,6.5c3.8,1.6,7.8,2.5,11.9,2.4
	c5.6,0.1,11-1.4,15.8-4.3c4.6-2.8,8.5-6.7,11.1-11.5h11.8c-2.1,5.4-5.3,10.2-9.4,14.3c-3.9,3.8-8.4,6.9-13.4,9
	c-5,2.1-10.4,3.2-15.9,3.2c-5.5,0-10.9-1.1-15.9-3.2c-21.1-8.9-31.1-33.1-22.4-54.3c2-5,5.1-9.6,9-13.4c3.8-3.9,8.3-7,13.4-9.1
	c5-2.1,10.5-3.2,15.9-3.2c5.5,0,10.9,1.1,15.9,3.2c5,2.1,9.6,5.2,13.4,9.1c3.9,3.8,7,8.4,9,13.5c2.1,5.1,3.1,10.6,3.1,16.1H213.3z
	 M244.1,40.8c-3.3,0-6.5,0.5-9.6,1.5c-3,1-5.8,2.4-8.4,4.3c-5.1,3.7-9.1,8.9-11.2,14.9h58.2c-2.1-6-6-11.2-11.2-14.9
	C256.8,42.8,250.6,40.8,244.1,40.8z"/>
<path class="st0" d="M384.4,42.4c3.8-3.8,8.4-6.9,13.4-9c10.2-4.3,21.7-4.3,31.9,0c21.2,8.9,31.2,33.2,22.3,54.4
	c-4.2,10.1-12.2,18.1-22.3,22.3c-10.2,4.3-21.7,4.3-31.9,0c-5-2.1-9.5-5.2-13.4-9c-0.5-0.5-1.1-1.1-1.5-1.7v42.8h-10.6V71.8
	c0-5.5,1-10.9,3.1-15.9C377.5,50.8,380.6,46.2,384.4,42.4z M413.8,102.7c4.1,0,8.2-0.8,12-2.4c7.4-3.1,13.3-9,16.4-16.4
	c1.6-3.8,2.5-7.9,2.4-12c0-4.2-0.8-8.3-2.5-12.1c-1.5-3.7-3.8-7-6.6-9.9c-2.8-2.8-6.1-5.1-9.8-6.6c-7.7-3.2-16.3-3.2-24,0
	c-7.4,3.1-13.3,9.1-16.4,16.5c-1.6,3.8-2.5,7.9-2.4,12.1c0,4.1,0.8,8.2,2.4,12c3.1,7.4,9,13.3,16.4,16.4
	C405.5,101.9,409.6,102.7,413.8,102.7z"/>
<path class="st0" d="M532.6,42.4c3.9,3.9,6.9,8.5,9,13.5c2.1,5.1,3.2,10.5,3.2,15.9v38h-10.7V98.4c-1.9,2.7-4.1,5-6.7,7.1
	c-2.4,1.8-4.9,3.4-7.7,4.6c-2.7,1.2-5.4,2-8.3,2.5c-2.7,0.5-5.4,0.7-8.2,0.8c-5.5,0-10.9-1.1-16-3.2c-5-2.1-9.5-5.2-13.4-9
	c-7.8-7.8-12.2-18.3-12.2-29.3c0-5.5,1-10.9,3.1-15.9c8.7-21.2,32.9-31.3,54.1-22.6C524.1,35.4,528.7,38.4,532.6,42.4L532.6,42.4z
	 M503.3,102.7c4.1,0,8.2-0.8,12-2.4c7.4-3.1,13.3-9,16.4-16.4c1.6-3.8,2.5-7.9,2.4-12c0-4.2-0.8-8.3-2.4-12.1
	c-1.5-3.7-3.8-7-6.6-9.9c-2.8-2.8-6.1-5.1-9.8-6.6c-7.7-3.2-16.3-3.2-24,0c-7.4,3.1-13.3,9.1-16.4,16.5c-1.6,3.8-2.5,7.9-2.4,12.1
	c0,4.1,0.8,8.2,2.4,12c3.1,7.4,9,13.3,16.4,16.4C495.1,101.8,499.2,102.7,503.3,102.7z"/>
<path class="st0" d="M649.2,72.1c0,4.1,0.8,8.2,2.5,11.9c1.6,3.6,3.9,6.9,6.7,9.6c2.8,2.8,6.1,5,9.7,6.5c3.8,1.6,7.8,2.5,11.9,2.4
	c5.6,0.1,11-1.4,15.8-4.3c4.6-2.8,8.5-6.7,11.1-11.5h11.8c-2.1,5.4-5.3,10.2-9.4,14.3c-3.9,3.8-8.4,6.9-13.4,9
	c-5,2.1-10.4,3.2-15.9,3.2c-5.5,0-10.9-1.1-15.9-3.2c-21.1-8.9-31.1-33.1-22.4-54.2c2-5,5.1-9.6,9-13.4c3.8-3.9,8.3-7,13.4-9.1
	c5-2.1,10.5-3.2,15.9-3.2c5.5,0,10.9,1.1,15.9,3.2c5,2.1,9.6,5.2,13.4,9.1c3.9,3.8,7,8.4,9,13.5c2.1,5.1,3.1,10.6,3.1,16.1
	L649.2,72.1z M680,40.8c-3.3,0-6.5,0.5-9.6,1.5c-3,1-5.8,2.4-8.3,4.3c-2.5,1.8-4.8,4-6.7,6.5c-1.9,2.5-3.5,5.4-4.6,8.4H709
	c-2.1-6-6-11.2-11.2-14.9C692.7,42.8,686.4,40.8,680,40.8z"/>
<path class="st0" d="M633.8,83.9c-5,16.3-22.8,29.5-43,28.2c-23.6-1.6-40.8-21.1-39.9-43.3c0.8-20.3,17.4-37.8,39.2-39.6
	c23.4-1.9,39.9,14.4,43.7,28.2c-4.5,0-9,0.1-13.5-0.1c-0.8,0-1.8-1.3-2.4-2.2c-6.8-9.4-16.1-14.1-27.9-12.6
	c-12.3,1.6-20.6,8.5-24.3,20.1c-4.3,13.4,2.5,27.7,15.8,33.8c12.9,5.9,28.2,1.7,36.2-10c1.3-1.9,2.5-2.7,4.8-2.6
	C626.1,84.1,629.8,83.9,633.8,83.9z"/>
<path class="st0" d="M349.7,56.6c-4.2-2.1-8.5-3.8-13-5.2c-1.6-0.5-1.6-0.6-0.4-1.8c2.9-2.8,5.9-5.5,8.9-8.2c2-1.9,9-7.6,11.2-9.7
	c-0.7,0.2-1.3,0.5-1.8,1c-7.5,5.8-19.7,15.3-27.2,21.1c-10.4,8-20.9,16-31.3,24c-0.7,0.5-1.4,0.9-1.6,1.9c-0.3,1.4-0.3,2.8-0.2,4.2
	c0.7,7.9,4.5,15.2,10.6,20.3c11.8,9.9,31.1,11.9,45.2,4.8c12.4-6.2,18.2-17.6,15.9-31.3C364.4,67.8,358.2,61.2,349.7,56.6z
	 M345.7,96.4c-4.4,2.6-9.2,3.4-13.9,3.5c-5.2-0.2-10.1-1-14.5-3.5c-4-2.1-7-5.7-8.4-9.9c-0.9-2.6-1.5-5.3-1.7-8c-0.2-1,0.2-2,1-2.7
	c5-4.6,10-9.2,14.9-13.9c0.5-0.5,1-0.9,1.7-0.6c6.5,2.4,13.3,4,19.4,7.4c2.1,1.1,4,2.7,5.6,4.5c5.4,6.6,4.4,16.3-2.2,21.8
	C347,95.6,346.4,96,345.7,96.4L345.7,96.4z"/>
<path class="st1" d="M298,39.7c2.1,8,7.4,13.1,14.4,16.9c0.8,0.6,2,0.5,2.7-0.3c3.1-2.5,6.2-4.9,9.3-7.3c1.3-1,1.3-1.1-0.2-1.8
	c-3.4-1.2-6.6-3.1-9.3-5.4c-2.1-1.8-3.6-4.2-4.1-6.9c-1.3-6.8,1.5-13.7,7.2-17.6c6.1-4.1,12.7-4.8,19.6-2.9s11.3,5.9,12.1,13.4
	c0.1,1.4,0.7,0.9,1.3,0.4c3.1-2.4,6.2-4.9,9.4-7.3c0.9-0.5,1.3-1.7,0.7-2.6c0,0,0-0.1-0.1-0.1c-1.6-3.9-4.2-7.3-7.4-10
	c-8.7-7.1-18.6-9.4-29.5-7.5c-16.6,2.9-27.4,16.2-27,31.5C297.1,34.7,297.4,37.3,298,39.7z"/>
</svg>
