<svg id="Layer_1" data-name="Layer 1" xmlns="http://www.w3.org/2000/svg" viewBox="0 0 892 1384.49"><defs><style>.cls-1{fill:#e6e6e6;}.cls-2{fill:#f25a25;}.cls-3{fill:#232323;}</style></defs><path class="cls-1" d="M1245.89,1435.16c49.7-67.61,51-164-6.54-231.2-19.62-22.74-43.57-40.14-69.72-54.63-75.36-41.76-159.17-61.17-239.36-90-9.15-3.32-15.19,1.31-21.33,6.94-61.37,56.65-122.64,113.39-184.42,169.63a44.45,44.45,0,0,0-5.53,6,43.15,43.15,0,0,1,8-9.56Q819.6,1148,911.46,1062.7c6.14-5.73,12.17-10.36,21.33-7,80.29,29,164,48.39,239.45,90,26.16,14.48,50.21,32,69.73,54.83C1300.52,1268.85,1298.21,1367.45,1245.89,1435.16Z" transform="translate(-554 -307.76)"/><path class="cls-2" d="M1440,1257.79c-20.53-121.64-96.09-202-201.12-258.37-51-27.27-105.95-44.88-160.58-63.19-19.62-6.64-20.12-8.05-5.23-21.73,36.32-33.7,72.94-67,109.36-100.61C1207.66,790.55,1292.77,721,1320.84,695c-11.77,2.51-16.6,8.45-22.23,12.78-91.86,70.42-243.28,187.43-335.44,257.66Q770.3,1112.26,576.83,1258.29c-8.25,6.24-17.61,11.47-19.32,23.64-2.31,17.21-4.73,34.51-2.82,51.82,11.17,99.8,53.63,184,130.9,248.31,145.28,120.83,384.13,145.18,558,58.65C1396.2,1564.65,1468.24,1425.91,1440,1257.79Zm-199.92,184.82a189,189,0,0,1-51,43.76c-53.92,31.6-113.18,41.46-171.84,43.47-64.59-1.91-124.35-12.18-179.59-42.26-50.1-27.26-84.21-67.81-103.73-121.23-11.57-31.6-17.31-64.4-21.53-97.6-1.31-10.46.6-19,6.54-26.76a.1.1,0,0,1,.1-.1,44.45,44.45,0,0,1,5.53-6c61.78-56.24,123.05-113,184.42-169.63,6.14-5.63,12.18-10.26,21.33-6.94,80.19,28.88,164,48.29,239.36,90,26.15,14.49,50.1,31.89,69.72,54.63,57.55,67.21,56.24,163.59,6.54,231.2C1244.08,1437.68,1242.07,1440.19,1240.05,1442.61Z" transform="translate(-554 -307.76)"/><path class="cls-3" d="M601.16,793.11C627,890.47,692.82,953.29,778.88,998.92c13,6.88,22.1,5.61,33.34-3.39,37.7-30.18,76.22-59.32,114.34-89,16.46-12.8,16.34-13.84-3-21.46-41.71-16.44-81.52-36.17-115.35-66.24-25.65-22.81-44.11-50.06-50.82-84.34-16.25-83,18.42-168.61,89-215.41,74.83-49.61,157.09-58.85,242.13-35.74,83.24,22.62,140,72.59,149.2,164,1.66,16.41,8.81,11.12,16.6,5.11,38.7-29.91,77.07-60.27,116.22-89.58,12.82-9.59,14.83-19,8.47-33.25-21.33-47.72-50.45-89.77-91.16-122.59-107.24-86.45-230-114.6-364.49-91.57C719,350.44,585.27,513.6,590.75,700A315.17,315.17,0,0,0,601.16,793.11Z" transform="translate(-554 -307.76)"/></svg>