<svg xmlns="http://www.w3.org/2000/svg" width="1366" height="111.871" viewBox="0 0 1366 111.871"><path d="M1366,773.871H0V662a33.247,33.247,0,0,0,8.453,8.945,87.208,87.208,0,0,0,14.4,8.663,194.219,194.219,0,0,0,20.037,8.341q12.374,4.39,25.392,7.975c9.263,2.576,19.507,5.123,30.45,7.57,10.881,2.434,22.728,4.831,35.212,7.125,12.431,2.284,25.78,4.518,39.676,6.639,13.871,2.117,28.624,4.174,43.849,6.113s31.286,3.8,47.724,5.545c16.482,1.745,33.744,3.407,51.3,4.938,17.672,1.54,36.039,2.983,54.591,4.289,18.729,1.319,38.1,2.53,57.582,3.6,19.671,1.081,39.951,2.047,60.277,2.871,20.551.833,41.638,1.539,62.677,2.1,21.268.568,43.064,1,64.783,1.29,21.959.292,44.364.439,66.593.439s44.633-.147,66.593-.439c21.662-.287,43.458-.721,64.783-1.29,21.039-.561,42.127-1.271,62.677-2.1,20.31-.823,40.59-1.789,60.278-2.871,19.484-1.07,38.857-2.282,57.581-3.6,18.546-1.3,36.913-2.748,54.591-4.289,17.562-1.531,34.823-3.193,51.305-4.938,16.42-1.738,32.477-3.6,47.724-5.545,15.213-1.937,29.966-3.994,43.848-6.113s27.235-4.353,39.677-6.639c12.48-2.293,24.326-4.69,35.211-7.125,10.946-2.448,21.19-4.995,30.45-7.57q13-3.581,25.393-7.975a194.43,194.43,0,0,0,20.041-8.34,87.167,87.167,0,0,0,14.4-8.663A33.216,33.216,0,0,0,1366,662Z" transform="translate(0 -662)" fill="#fefefe"/></svg>