<svg xmlns="http://www.w3.org/2000/svg" width="1366" height="176" viewBox="0 0 1366 176"><defs><style>.a{fill:#fefefe;}</style></defs><path class="a" d="M1366,838H0V662a50.13,50.13,0,0,0,8.453,14.072,91.142,91.142,0,0,0,14.4,13.629A166.046,166.046,0,0,0,42.89,702.824a282.723,282.723,0,0,0,25.392,12.547c9.263,4.053,19.507,8.06,30.45,11.91,10.881,3.83,22.728,7.6,35.212,11.21,12.431,3.594,25.78,7.108,39.676,10.445,13.871,3.331,28.624,6.566,43.849,9.617s31.286,5.985,47.724,8.724c16.482,2.746,33.744,5.36,51.3,7.769,17.672,2.423,36.039,4.693,54.591,6.747,18.729,2.075,38.1,3.981,57.582,5.665,19.671,1.7,39.951,3.221,60.277,4.517,20.551,1.31,41.638,2.422,62.677,3.306,21.268.893,43.064,1.576,64.783,2.03,21.959.459,44.364.691,66.593.691s44.633-.232,66.593-.691c21.662-.451,43.458-1.135,64.783-2.03,21.039-.883,42.127-2,62.677-3.306,20.31-1.294,40.59-2.814,60.278-4.517,19.484-1.684,38.857-3.59,57.581-5.665,18.546-2.053,36.913-4.323,54.591-6.747,17.562-2.409,34.823-5.023,51.305-7.769,16.42-2.735,32.477-5.67,47.724-8.724,15.213-3.048,29.966-6.283,43.848-9.617s27.235-6.849,39.677-10.445c12.48-3.607,24.326-7.378,35.211-11.21,10.946-3.851,21.19-7.858,30.45-11.91a282.814,282.814,0,0,0,25.393-12.547,166.2,166.2,0,0,0,20.041-13.121,91.121,91.121,0,0,0,14.395-13.629A50.073,50.073,0,0,0,1366,662V838Z" transform="translate(0 -662.001)"/></svg>