<svg xmlns="http://www.w3.org/2000/svg" width="1372" height="185" viewBox="0 0 1372 185"><defs><style>.a{fill:#fefefe;}</style></defs><path class="a" d="M1372,176a49.947,49.947,0,0,0-8.488-14.074,91.357,91.357,0,0,0-14.458-13.629,166.953,166.953,0,0,0-20.129-13.121c-7.566-4.249-16.147-8.47-25.505-12.547-9.3-4.053-19.592-8.06-30.584-11.91-10.933-3.832-22.832-7.6-35.365-11.21-12.493-3.6-25.9-7.11-39.851-10.445-13.932-3.331-28.749-6.567-44.041-9.617-15.322-3.055-31.449-5.99-47.934-8.724-16.559-2.746-33.9-5.36-51.531-7.769-17.748-2.423-36.2-4.694-54.831-6.747-18.805-2.074-38.263-3.98-57.834-5.665-19.774-1.7-40.143-3.223-60.542-4.517-20.649-1.31-41.829-2.423-62.953-3.306-21.413-.895-43.3-1.578-65.067-2.029C730.829,40.233,708.326,40,686,40s-44.83.232-66.885.691c-21.8.453-43.7,1.136-65.067,2.029-21.131.884-42.312,2-62.952,3.306-20.4,1.295-40.769,2.814-60.541,4.517-19.566,1.684-39.025,3.59-57.835,5.665-18.644,2.055-37.092,4.325-54.832,6.747-17.641,2.409-34.978,5.023-51.53,7.769-16.52,2.74-32.647,5.675-47.934,8.724s-30.095,6.282-44.041,9.617-27.363,6.851-39.851,10.445C122,103.117,110.1,106.888,99.165,110.72c-10.99,3.85-21.28,7.857-30.583,11.91-9.358,4.076-17.938,8.3-25.5,12.547A166.881,166.881,0,0,0,22.948,148.3,91.347,91.347,0,0,0,8.49,161.926,50.05,50.05,0,0,0,0,176V-9H1372V176Z" transform="translate(0 8.999)"/></svg>